# xmcd CD database file
#
# Track frame offsets:
#	150
#	11426
#	28251
#	40005
#	64320
#	76399
#	87584
#
# Disc length: 1348 seconds
#
# Revision: 0
# Processed by: cddbd v1.5.2PL0 Copyright (c) Steve Scherf et al.
# Submitted via: CDex 1.70beta2
#
DISCID=52054207
DTITLE=Lucky Beggar and The Dirty Keys - Lucky
DYEAR=2013
DGENRE=Blues
TTITLE0=4, 5, 6, 9 ... Girls!
TTITLE1=I Don´t Know
TTITLE2=Keep It Kool
TTITLE3=Nobody Knows
TTITLE4=Bet Your Boots
TTITLE5=Jungle Woman
TTITLE6=Lucky Show
EXTD=YEAR: 2013
EXTT0=
EXTT1=
EXTT2=
EXTT3=
EXTT4=
EXTT5=
EXTT6=
PLAYORDER=
